# XSI Wavefront OBJ Export v3.0
# File Created: Sat May 24 22:54:03 2014
# XSI Version: 9.0.243.0
mtllib r.mtl

o cube2
# Hierarchy (from self to top father)
g cube2

#begin 8 vertices
v 13.381084 6.386118 5.650609
v 13.381084 6.386118 -5.644572
v -13.335900 6.386118 -5.644572
v -13.335900 -0.370350 -5.644572
v 13.381084 -0.370350 -5.644572
v 13.381084 -0.370350 5.650609
v -13.335900 -0.370350 5.650609
v -13.335900 6.386118 5.650609
#end 8 vertices

#begin 16 normals
vn 0.000000 1.000000 0.000000
vn 0.000000 1.000000 0.000000
vn 0.000000 1.000000 0.000000
vn 0.000000 1.000000 0.000000
vn 0.000000 0.000000 1.000000
vn 0.000000 0.000000 1.000000
vn 0.000000 0.000000 1.000000
vn 0.000000 0.000000 1.000000
vn -1.000000 0.000000 -0.000000
vn -1.000000 0.000000 -0.000000
vn -1.000000 0.000000 0.000000
vn -1.000000 0.000000 -0.000000
vn 1.000000 0.000000 -0.000000
vn 1.000000 0.000000 -0.000000
vn 1.000000 0.000000 -0.000000
vn 1.000000 0.000000 0.000000
#end 16 vertex normals

#begin 4 faces
usemtl polymsh21brickwall
f 4//4 7//3 6//2 5//1 
usemtl polymsh21brickwall
f 5//9 6//10 1//11 2//12 
usemtl polymsh21brickwall
f 4//8 5//7 2//6 3//5 
usemtl polymsh21brickwall
f 7//13 4//14 3//15 8//16 
#end 4 faces
