# XSI Wavefront OBJ Export v3.0
# File Created: Fri Nov 08 23:53:04 2013
# XSI Version: 9.0.243.0
mtllib Props2.mtl

o polymsh1
# Hierarchy (from self to top father)
g polymsh1

#begin 116 vertices
v -1.661895 0.712677 -2.154762
v -1.661895 0.917993 -2.154762
v -1.727775 0.732283 -2.176200
v -1.768491 0.783612 -2.189449
v -1.768491 0.847058 -2.189449
v -1.727775 0.898387 -2.176200
v -1.702641 0.732283 -2.098731
v -1.727824 0.783612 -2.064102
v -1.727824 0.847058 -2.064102
v -1.702641 0.898387 -2.098731
v -1.621197 0.732283 -2.098695
v -1.596045 0.783612 -2.064044
v -1.596045 0.847058 -2.064044
v -1.621197 0.898387 -2.098695
v -1.595996 0.732283 -2.176142
v -1.555268 0.783612 -2.189356
v -1.555268 0.847058 -2.189356
v -1.595996 0.898387 -2.176142
v -1.661865 0.732283 -2.224043
v -1.661846 0.783612 -2.266861
v -1.661846 0.847058 -2.266861
v -1.661865 0.898387 -2.224043
v -1.251236 1.066981 -2.204337
v -2.142801 1.066981 -2.204337
v -2.281014 0.352410 -2.168071
v -1.113024 0.352410 -2.168071
v -1.251236 1.066981 -3.249818
v -2.142801 1.066981 -3.249818
v -2.281014 0.352410 -3.254013
v -1.113024 0.352410 -3.254013
v -1.304862 1.066981 -2.266451
v -2.089175 1.066981 -2.266451
v -1.304862 1.066981 -3.187703
v -2.089175 1.066981 -3.187703
v -1.203297 0.482754 -2.266451
v -2.190741 0.482754 -2.266451
v -1.203297 0.482754 -3.187703
v -2.190741 0.482754 -3.187703
v -2.530170 -0.441663 -3.421804
v -0.863868 -0.441663 -3.421804
v -2.389489 1.366588 -3.500726
v -1.182757 1.146484 -3.349272
v -2.419227 -0.362161 -2.179915
v -0.863868 -0.441663 -2.179915
v -2.211281 1.146484 -2.252446
v -1.182757 1.146484 -2.252446
v -2.211281 1.146484 -3.349272
v -1.004549 1.146484 -3.500726
v -2.389489 1.146484 -2.100993
v -1.004549 1.146484 -2.100993
v -2.389489 1.146484 -3.500726
v -1.004549 1.366588 -3.500726
v -2.389489 1.366588 -2.100993
v -1.004549 1.366588 -2.100993
v -2.530170 -0.441663 -2.179915
v -0.974811 -0.362161 -2.179915
v -2.142801 1.066981 -2.252446
v -1.251237 1.066981 -2.252446
v -2.370726 0.352410 -3.385538
v -1.023312 0.352410 -3.385538
v -2.370726 0.352410 -2.216181
v -1.023312 0.352410 -2.216181
v -1.113024 0.352410 -2.216181
v -2.281014 0.352410 -2.216181
v -1.251237 1.066981 -3.297916
v -1.113024 0.352410 -3.261650
v -2.142801 1.066981 -3.297916
v -2.281014 0.352410 -3.261650
v -2.142801 1.066981 -2.252446
v -1.251237 1.066981 -2.252446
v -1.113024 0.352410 -2.216181
v -2.281014 0.352410 -2.216181
v -1.251237 1.066981 -3.297916
v -1.113024 0.352410 -3.261650
v -2.142801 1.066981 -3.297916
v -2.281014 0.352410 -3.261650
v -2.389489 1.366588 -3.500726
v -1.004549 1.366588 -3.500726
v -2.389489 1.366588 -2.100993
v -1.004549 1.366588 -2.100993
v -1.182757 1.146484 -3.349272
v -2.211281 1.146484 -2.252446
v -1.182757 1.146484 -2.252446
v -2.211281 1.146484 -3.349272
v -1.004549 1.146484 -3.500726
v -2.389489 1.146484 -2.100993
v -1.004549 1.146484 -2.100993
v -2.389489 1.146484 -3.500726
v -5.090383 -0.170954 -2.318120
v -5.031178 -0.170954 -2.656333
v -4.961610 -0.293280 -2.644155
v -5.239880 -0.293280 -2.692867
v -5.090383 -0.415607 -2.318120
v -5.299085 -0.293280 -2.354654
v -5.020816 -0.293280 -2.305942
v -5.170312 -0.170954 -2.680689
v -5.170312 -0.415607 -2.680689
v -5.229518 -0.170954 -2.342476
v -5.229518 -0.415607 -2.342476
v -5.031178 -0.415607 -2.656333
v -5.097220 -0.403585 -2.319316
v -5.222681 -0.403585 -2.341279
v -5.285412 -0.293280 -2.352260
v -5.034489 -0.293280 -2.308335
v -5.222681 -0.182976 -2.341279
v -5.097220 -0.182976 -2.319316
v -5.049641 -0.403585 -2.591115
v -5.175102 -0.403585 -2.613077
v -5.237832 -0.293280 -2.624058
v -4.986910 -0.293280 -2.580133
v -5.175102 -0.182976 -2.613077
v -5.049641 -0.182976 -2.591115
v -5.787096 -0.396951 -1.698292
v -6.077195 -0.396951 -2.286824
v -5.685184 -0.396951 -2.480054
v -5.395085 -0.396951 -1.891522
#end 116 vertices

#begin 330 normals
vn -0.311270 -0.848468 0.428034
vn -0.503272 -0.848468 -0.163766
vn -0.000000 -1.000000 0.000000
vn -0.503272 -0.848468 -0.163766
vn -0.311270 -0.848468 0.428034
vn -0.550134 -0.353639 0.756500
vn -0.889475 -0.353639 -0.289437
vn -0.889475 -0.353639 -0.289437
vn -0.550134 -0.353639 0.756500
vn -0.550134 0.353639 0.756500
vn -0.889475 0.353639 -0.289437
vn -0.889475 0.353639 -0.289437
vn -0.550134 0.353639 0.756500
vn -0.311270 0.848468 0.428034
vn -0.503272 0.848468 -0.163766
vn -0.503272 0.848468 -0.163766
vn -0.311270 0.848468 0.428034
vn -0.000000 1.000000 0.000000
vn 0.310897 -0.848468 0.428305
vn -0.311270 -0.848468 0.428034
vn -0.000000 -1.000000 0.000000
vn -0.311270 -0.848468 0.428034
vn 0.310897 -0.848468 0.428305
vn 0.549474 -0.353639 0.756980
vn -0.550134 -0.353639 0.756500
vn -0.550134 -0.353639 0.756500
vn 0.549474 -0.353639 0.756980
vn 0.549474 0.353639 0.756980
vn -0.550134 0.353639 0.756500
vn -0.550134 0.353639 0.756500
vn 0.549474 0.353639 0.756980
vn 0.310897 0.848468 0.428305
vn -0.311270 0.848468 0.428034
vn -0.311270 0.848468 0.428034
vn 0.310897 0.848468 0.428305
vn -0.000000 1.000000 0.000000
vn 0.503415 -0.848468 -0.163327
vn 0.310897 -0.848468 0.428305
vn -0.000000 -1.000000 0.000000
vn 0.310897 -0.848468 0.428305
vn 0.503415 -0.848468 -0.163327
vn 0.889727 -0.353639 -0.288661
vn 0.549474 -0.353639 0.756980
vn 0.549474 -0.353639 0.756980
vn 0.889727 -0.353639 -0.288661
vn 0.889727 0.353639 -0.288661
vn 0.549474 0.353639 0.756980
vn 0.549474 0.353639 0.756980
vn 0.889727 0.353639 -0.288661
vn 0.503415 0.848468 -0.163327
vn 0.310897 0.848468 0.428305
vn 0.310897 0.848468 0.428305
vn 0.503415 0.848468 -0.163327
vn -0.000000 1.000000 0.000000
vn 0.000231 -0.848468 -0.529247
vn 0.503415 -0.848468 -0.163327
vn -0.000000 -1.000000 0.000000
vn 0.503415 -0.848468 -0.163327
vn 0.000231 -0.848468 -0.529247
vn 0.000408 -0.353639 -0.935382
vn 0.889727 -0.353639 -0.288661
vn 0.889727 -0.353639 -0.288661
vn 0.000408 -0.353639 -0.935382
vn 0.000408 0.353639 -0.935382
vn 0.889727 0.353639 -0.288661
vn 0.889727 0.353639 -0.288661
vn 0.000408 0.353639 -0.935382
vn 0.000231 0.848468 -0.529247
vn 0.503415 0.848468 -0.163327
vn 0.503415 0.848468 -0.163327
vn 0.000231 0.848468 -0.529247
vn -0.000000 1.000000 0.000000
vn -0.503272 -0.848468 -0.163766
vn 0.000231 -0.848468 -0.529247
vn -0.000000 -1.000000 0.000000
vn 0.000231 -0.848468 -0.529247
vn -0.503272 -0.848468 -0.163766
vn -0.889475 -0.353639 -0.289437
vn 0.000408 -0.353639 -0.935382
vn 0.000408 -0.353639 -0.935382
vn -0.889475 -0.353639 -0.289437
vn -0.889475 0.353639 -0.289437
vn 0.000408 0.353639 -0.935382
vn 0.000408 0.353639 -0.935382
vn -0.889475 0.353639 -0.289437
vn -0.503272 0.848468 -0.163766
vn 0.000231 0.848468 -0.529247
vn 0.000231 0.848468 -0.529247
vn -0.503272 0.848468 -0.163766
vn -0.000000 1.000000 0.000000
vn 0.000000 0.050687 0.998715
vn 0.000000 0.050687 0.998715
vn 0.000000 0.050687 0.998715
vn 0.000000 0.050687 0.998715
vn 0.000000 0.005871 -0.999983
vn 0.000000 0.005871 -0.999983
vn 0.000000 0.005871 -0.999983
vn 0.000000 0.005871 -0.999983
vn -0.981803 0.189901 -0.000000
vn -0.981803 0.189901 -0.000000
vn -0.981803 0.189901 -0.000000
vn -0.981803 0.189901 -0.000000
vn 0.981803 0.189901 -0.000000
vn 0.981803 0.189901 -0.000000
vn 0.981803 0.189901 -0.000000
vn 0.981803 0.189901 -0.000000
vn 0.000000 1.000000 -0.000000
vn 0.000000 1.000000 -0.000000
vn 0.000000 1.000000 -0.000000
vn 0.000000 1.000000 -0.000000
vn 0.000000 1.000000 -0.000000
vn -0.000000 1.000000 -0.000000
vn -0.000000 1.000000 -0.000000
vn 0.000000 1.000000 -0.000000
vn -0.000000 1.000000 -0.000000
vn -0.000000 1.000000 0.000000
vn -0.000000 1.000000 0.000000
vn -0.000000 1.000000 -0.000000
vn 0.000000 1.000000 0.000000
vn 0.000000 1.000000 -0.000000
vn 0.000000 1.000000 -0.000000
vn 0.000000 1.000000 0.000000
vn -0.000000 1.000000 0.000000
vn 0.000000 1.000000 0.000000
vn 0.000000 1.000000 0.000000
vn -0.000000 1.000000 0.000000
vn -0.000000 0.000000 -1.000000
vn -0.000000 0.000000 -1.000000
vn -0.000000 0.000000 -1.000000
vn -0.000000 0.000000 -1.000000
vn -0.985223 -0.171277 0.000000
vn -0.985223 -0.171277 0.000000
vn -0.985223 -0.171277 0.000000
vn -0.985223 -0.171277 0.000000
vn 0.985223 -0.171277 0.000000
vn 0.985223 -0.171277 0.000000
vn 0.985223 -0.171277 0.000000
vn 0.985223 -0.171277 0.000000
vn -0.000000 0.000000 1.000000
vn -0.000000 0.000000 1.000000
vn -0.000000 0.000000 1.000000
vn -0.000000 0.000000 1.000000
vn 0.000000 0.050687 0.998715
vn 0.000000 0.050687 0.998715
vn 0.000000 0.050687 0.998715
vn 0.000000 0.050687 0.998715
vn -0.981803 -0.189901 -0.000000
vn -0.981803 -0.189901 -0.000000
vn -0.981803 -0.189901 -0.000000
vn -0.981803 -0.189901 -0.000000
vn -0.980431 0.196864 0.000000
vn -0.980431 0.196864 0.000000
vn -0.980431 0.196864 0.000000
vn -0.980431 0.196864 0.000000
vn 0.980431 0.196864 0.000000
vn 0.980431 0.196864 0.000000
vn 0.980431 0.196864 0.000000
vn 0.980431 0.196864 0.000000
vn 0.000000 1.000000 0.000000
vn 0.000000 1.000000 0.000000
vn 0.000000 1.000000 0.000000
vn 0.000000 1.000000 0.000000
vn -0.006880 0.034265 0.999389
vn 0.006880 0.034265 0.999389
vn -0.000442 0.048823 0.998807
vn 0.000442 0.048823 0.998807
vn 0.000000 -1.000000 0.000000
vn 0.000000 -1.000000 0.000000
vn 0.000000 -1.000000 0.000000
vn 0.000000 -1.000000 0.000000
vn 0.000000 -1.000000 0.000000
vn 0.000000 -1.000000 0.000000
vn 0.000000 -1.000000 0.000000
vn 0.000000 -1.000000 0.000000
vn 0.000000 -1.000000 0.000000
vn 0.000000 -1.000000 0.000000
vn 0.000000 -1.000000 0.000000
vn 0.000000 -1.000000 0.000000
vn 0.981803 -0.189901 -0.000000
vn 0.981803 -0.189901 -0.000000
vn 0.981803 -0.189901 -0.000000
vn 0.981803 -0.189901 -0.000000
vn -1.000000 0.000000 0.000000
vn -1.000000 0.000000 -0.000000
vn -1.000000 0.000000 -0.000000
vn -1.000000 0.000000 0.000000
vn 0.000000 0.000000 1.000000
vn 0.000000 0.000000 1.000000
vn 0.000000 0.000000 1.000000
vn 0.000000 0.000000 1.000000
vn 1.000000 0.000000 -0.000000
vn 1.000000 0.000000 0.000000
vn 1.000000 0.000000 0.000000
vn 1.000000 0.000000 -0.000000
vn 0.000000 1.000000 0.000000
vn 0.000000 1.000000 0.000000
vn 0.000000 1.000000 0.000000
vn 0.000000 1.000000 0.000000
vn -0.010320 0.026046 0.999607
vn 0.010320 0.026046 0.999607
vn 0.006880 0.034265 0.999389
vn -0.006880 0.034265 0.999389
vn 0.010320 0.026046 0.999607
vn -0.000662 0.047891 0.998852
vn -0.000442 0.048823 0.998807
vn 0.006880 0.034265 0.999389
vn -0.010981 0.021850 0.999701
vn 0.010981 0.021850 0.999701
vn 0.010981 0.021850 0.999701
vn -0.010981 0.021850 0.999701
vn 0.010981 0.021850 0.999701
vn 0.000662 0.047891 0.998852
vn 0.000442 0.048823 0.998807
vn 0.010981 0.021850 0.999701
vn 0.000000 -1.000000 -0.000000
vn 0.000000 -1.000000 -0.000000
vn 0.000000 -1.000000 -0.000000
vn 0.000000 -1.000000 -0.000000
vn -0.980431 0.196864 0.000000
vn -0.980431 0.196864 0.000000
vn -0.980431 0.196864 0.000000
vn -0.980431 0.196864 0.000000
vn 0.980431 0.196864 0.000000
vn 0.980431 0.196864 0.000000
vn 0.980431 0.196864 0.000000
vn 0.980431 0.196864 0.000000
vn -0.010320 0.026046 0.999607
vn -0.006880 0.034265 0.999389
vn 0.000442 0.048823 0.998807
vn 0.000662 0.047891 0.998852
vn -0.010981 0.021850 0.999701
vn -0.010981 0.021850 0.999701
vn -0.000442 0.048823 0.998807
vn -0.000662 0.047891 0.998852
vn -0.492511 -0.866025 -0.086216
vn -0.000000 -1.000000 -0.000000
vn -0.000000 -1.000000 -0.000000
vn -0.492511 -0.866025 -0.086216
vn 0.853054 -0.500000 0.149330
vn 0.985021 0.000000 0.172432
vn 0.985021 0.000000 0.172432
vn 0.853054 -0.500000 0.149330
vn -0.985021 0.000000 -0.172432
vn -0.853054 0.500000 -0.149330
vn -0.853054 0.500000 -0.149330
vn -0.985021 0.000000 -0.172432
vn 0.492511 0.866025 0.086216
vn 0.000000 1.000000 0.000000
vn 0.000000 1.000000 0.000000
vn 0.492511 0.866025 0.086216
vn 0.985021 0.000000 0.172432
vn 0.492511 0.866025 0.086216
vn 0.492511 0.866025 0.086216
vn 0.985021 0.000000 0.172432
vn -0.492511 -0.866025 -0.086216
vn -0.492511 -0.866025 -0.086216
vn -0.985021 0.000000 -0.172432
vn -0.985021 0.000000 -0.172432
vn 0.172432 0.000000 -0.985021
vn 0.172432 0.000000 -0.985021
vn 0.172432 0.000000 -0.985021
vn 0.172432 0.000000 -0.985021
vn 0.172432 0.000000 -0.985021
vn 0.172432 0.000000 -0.985021
vn 0.172432 0.000000 -0.985021
vn 0.172432 0.000000 -0.985021
vn 0.172432 0.000000 -0.985021
vn 0.172432 0.000000 -0.985021
vn -0.172432 -0.000000 0.985021
vn -0.172432 0.000000 0.985021
vn -0.172432 0.000000 0.985021
vn -0.172432 -0.000000 0.985021
vn -0.172432 0.000000 0.985021
vn -0.172432 -0.000000 0.985021
vn -0.172432 -0.000000 0.985021
vn -0.172432 0.000000 0.985021
vn -0.172432 0.000000 0.985021
vn -0.172432 0.000000 0.985021
vn -0.172432 0.000000 0.985021
vn -0.172432 0.000000 0.985021
vn -0.172432 0.000000 0.985021
vn -0.172432 0.000000 0.985021
vn -0.172432 0.000000 0.985021
vn -0.172432 0.000000 0.985021
vn -0.172432 0.000000 0.985021
vn -0.172432 -0.000000 0.985021
vn -0.172432 -0.000000 0.985021
vn -0.172432 0.000000 0.985021
vn -0.172432 -0.000000 0.985021
vn -0.172432 0.000000 0.985021
vn -0.172432 0.000000 0.985021
vn -0.172432 -0.000000 0.985021
vn 0.492511 0.866025 0.086216
vn 0.000000 1.000000 0.000000
vn 0.000000 1.000000 0.000000
vn 0.492511 0.866025 0.086216
vn 0.985021 0.000000 0.172432
vn 0.492511 0.866025 0.086216
vn 0.492511 0.866025 0.086216
vn 0.985021 0.000000 0.172432
vn -0.853054 0.500000 -0.149330
vn -0.985021 0.000000 -0.172432
vn -0.985021 0.000000 -0.172432
vn -0.853054 0.500000 -0.149330
vn 0.853054 -0.500000 0.149330
vn 0.985021 0.000000 0.172432
vn 0.985021 0.000000 0.172432
vn 0.853054 -0.500000 0.149330
vn -0.985021 0.000000 -0.172432
vn -0.492511 -0.866025 -0.086216
vn -0.492511 -0.866025 -0.086216
vn -0.985021 0.000000 -0.172432
vn -0.492511 -0.866025 -0.086216
vn -0.000000 -1.000000 -0.000000
vn -0.000000 -1.000000 -0.000000
vn -0.492511 -0.866025 -0.086216
vn -0.172432 0.000000 0.985021
vn -0.172432 0.000000 0.985021
vn -0.172432 0.000000 0.985021
vn -0.172432 0.000000 0.985021
vn -0.172432 0.000000 0.985021
vn -0.172432 0.000000 0.985021
vn -0.172432 0.000000 0.985021
vn -0.172432 0.000000 0.985021
vn -0.172432 0.000000 0.985021
vn -0.172432 0.000000 0.985021
vn 0.000000 1.000000 0.000000
vn 0.000000 1.000000 0.000000
vn 0.000000 1.000000 0.000000
vn 0.000000 1.000000 0.000000
#end 330 vertex normals

#begin texture vertices
vt 0.073217 0.285154 0.000000
vt 0.061154 0.285154 0.000000
vt 0.073217 0.301858 0.000000
vt 0.061154 0.301858 0.000000
vt 0.064865 0.286750 0.000000
vt 0.064865 0.290926 0.000000
vt 0.064865 0.296087 0.000000
vt 0.064865 0.300263 0.000000
vt 0.068612 0.286750 0.000000
vt 0.068453 0.290926 0.000000
vt 0.068453 0.296087 0.000000
vt 0.068612 0.300263 0.000000
vt 0.071760 0.286750 0.000000
vt 0.071685 0.290926 0.000000
vt 0.071685 0.296087 0.000000
vt 0.071760 0.300263 0.000000
vt 0.074673 0.286750 0.000000
vt 0.074749 0.290926 0.000000
vt 0.074749 0.296087 0.000000
vt 0.074673 0.300263 0.000000
vt 0.077821 0.286750 0.000000
vt 0.061117 0.286750 0.000000
vt 0.077980 0.290926 0.000000
vt 0.061276 0.290926 0.000000
vt 0.077980 0.296087 0.000000
vt 0.061276 0.296087 0.000000
vt 0.077821 0.300263 0.000000
vt 0.061117 0.300263 0.000000
vt 0.159470 0.087605 0.000000
vt 0.064248 0.040596 0.000000
vt 0.218858 0.040874 0.000000
vt 0.019139 0.040296 0.000000
vt 0.159470 0.135195 0.000000
vt 0.012768 0.007317 0.000000
vt 0.220530 0.007326 0.000000
vt 0.066598 0.007332 0.000000
vt 0.215275 0.087605 0.000000
vt 0.119736 0.040585 0.000000
vt 0.167392 0.040575 0.000000
vt 0.215275 0.135195 0.000000
vt 0.170480 0.007332 0.000000
vt 0.116647 0.007343 0.000000
vt 0.020907 0.078412 0.000000
vt 0.162785 0.090468 0.000000
vt 0.219211 0.078895 0.000000
vt 0.162785 0.132332 0.000000
vt 0.065502 0.078660 0.000000
vt 0.167337 0.078670 0.000000
vt 0.211959 0.090468 0.000000
vt 0.211959 0.132332 0.000000
vt 0.120090 0.078676 0.000000
vt 0.015486 0.047228 0.000000
vt 0.219211 0.047243 0.000000
vt 0.091749 0.136719 0.000000
vt 0.068213 0.047241 0.000000
vt 0.144456 0.136719 0.000000
vt 0.170048 0.047251 0.000000
vt 0.091749 0.087545 0.000000
vt 0.117379 0.047258 0.000000
vt 0.144456 0.087545 0.000000
vt 0.021103 0.193970 0.000000
vt 0.226600 0.193978 0.000000
vt 0.014912 0.167337 0.000000
vt 0.203375 0.262540 0.000000
vt 0.087274 0.180367 0.000000
vt 0.166057 0.176844 0.000000
vt 0.097801 0.247403 0.000000
vt 0.149904 0.247403 0.000000
vt 0.044325 0.262540 0.000000
vt 0.226905 0.157571 0.000000
vt 0.144389 0.258497 0.000000
vt 0.106132 0.258497 0.000000
vt 0.014912 0.157571 0.000000
vt 0.226905 0.167337 0.000000
vt 0.085826 0.167337 0.000000
vt 0.155991 0.167337 0.000000
vt 0.081651 0.176840 0.000000
vt 0.160434 0.180370 0.000000
vt 0.210236 0.276039 0.000000
vt 0.161227 0.275198 0.000000
vt 0.032712 0.228255 0.000000
vt 0.214989 0.228259 0.000000
vt 0.089719 0.212124 0.000000
vt 0.157986 0.212124 0.000000
vt 0.153442 0.212124 0.000000
vt 0.094265 0.212124 0.000000
vt 0.140956 0.332503 0.000000
vt 0.184683 0.297097 0.000000
vt 0.116577 0.332503 0.000000
vt 0.184674 0.297100 0.000000
vt 0.101272 0.243876 0.000000
vt 0.146433 0.243876 0.000000
vt 0.157557 0.313439 0.000000
vt 0.206779 0.313439 0.000000
vt 0.184683 0.297100 0.000000
vt 0.144735 0.315363 0.000000
vt 0.184674 0.297100 0.000000
vt 0.112798 0.315363 0.000000
vt 0.025263 0.343450 0.000000
vt 0.095428 0.343450 0.000000
vt 0.025263 0.272536 0.000000
vt 0.095428 0.272536 0.000000
vt 0.111055 0.292979 0.000000
vt 0.139466 0.262681 0.000000
vt 0.111055 0.262681 0.000000
vt 0.139466 0.292979 0.000000
vt 0.106132 0.297162 0.000000
vt 0.085826 0.157571 0.000000
vt 0.155991 0.157571 0.000000
vt 0.144388 0.297162 0.000000
vt 0.290359 0.084175 0.000000
vt 0.322138 0.034133 0.000000
vt 0.334331 0.075770 0.000000
vt 0.331885 0.064203 0.000000
vt 0.339122 0.139637 0.000000
vt 0.304958 0.063890 0.000000
vt 0.338310 0.101051 0.000000
vt 0.270597 0.004375 0.000000
vt 0.293690 0.126880 0.000000
vt 0.293456 0.105045 0.000000
vt 0.290686 0.137408 0.000000
vt 0.285619 0.073985 0.000000
vt 0.336631 0.088294 0.000000
vt 0.304958 0.004375 0.000000
vt 0.253417 0.034133 0.000000
vt 0.339096 0.113892 0.000000
vt 0.292310 0.094487 0.000000
vt 0.294058 0.115999 0.000000
vt 0.339432 0.126742 0.000000
vt 0.270597 0.063890 0.000000
vt 0.292765 0.126716 0.000000
vt 0.292965 0.116013 0.000000
vt 0.292443 0.105175 0.000000
vt 0.289962 0.136651 0.000000
vt 0.284904 0.074991 0.000000
vt 0.291325 0.094674 0.000000
vt 0.289460 0.084474 0.000000
vt 0.327256 0.033919 0.000000
vt 0.256566 0.125323 0.000000
vt 0.256843 0.116301 0.000000
vt 0.342748 0.060752 0.000000
vt 0.256706 0.107378 0.000000
vt 0.373732 0.060752 0.000000
vt 0.256056 0.134834 0.000000
vt 0.253464 0.081340 0.000000
vt 0.342748 0.007086 0.000000
vt 0.389224 0.033919 0.000000
vt 0.256130 0.098593 0.000000
vt 0.255019 0.089917 0.000000
vt 0.373732 0.007086 0.000000
vt 0.860581 0.911004 0.000000
vt 0.851678 0.923947 0.000000
vt 0.861529 0.930788 0.000000
vt 0.870432 0.917846 0.000000
#end 154 texture vertices

#begin 86 faces
usemtl polymsh1
f 7/9/1 3/5/2 1/1/3 
usemtl polymsh1
f 3/5/4 7/9/5 8/10/6 4/6/7 
usemtl polymsh1
f 4/6/8 8/10/9 9/11/10 5/7/11 
usemtl polymsh1
f 5/7/12 9/11/13 10/12/14 6/8/15 
usemtl polymsh1
f 6/8/16 10/12/17 2/3/18 
usemtl polymsh1
f 11/13/19 7/9/20 1/1/21 
usemtl polymsh1
f 7/9/22 11/13/23 12/14/24 8/10/25 
usemtl polymsh1
f 8/10/26 12/14/27 13/15/28 9/11/29 
usemtl polymsh1
f 9/11/30 13/15/31 14/16/32 10/12/33 
usemtl polymsh1
f 10/12/34 14/16/35 2/3/36 
usemtl polymsh1
f 15/17/37 11/13/38 1/1/39 
usemtl polymsh1
f 11/13/40 15/17/41 16/18/42 12/14/43 
usemtl polymsh1
f 12/14/44 16/18/45 17/19/46 13/15/47 
usemtl polymsh1
f 13/15/48 17/19/49 18/20/50 14/16/51 
usemtl polymsh1
f 14/16/52 18/20/53 2/3/54 
usemtl polymsh1
f 19/21/55 15/17/56 1/1/57 
usemtl polymsh1
f 15/17/58 19/21/59 20/23/60 16/18/61 
usemtl polymsh1
f 16/18/62 20/23/63 21/25/64 17/19/65 
usemtl polymsh1
f 17/19/66 21/25/67 22/27/68 18/20/69 
usemtl polymsh1
f 18/20/70 22/27/71 2/3/72 
usemtl polymsh1
f 3/5/73 19/22/74 1/2/75 
usemtl polymsh1
f 19/22/76 3/5/77 4/6/78 20/24/79 
usemtl polymsh1
f 20/24/80 4/6/81 5/7/82 21/26/83 
usemtl polymsh1
f 21/26/84 5/7/85 6/8/86 22/28/87 
usemtl polymsh1
f 22/28/88 6/8/89 2/4/90 
usemtl polymsh1
f 23/30/91 24/32/92 25/34/93 26/36/94 
usemtl polymsh1
f 27/38/95 30/42/96 29/41/97 28/39/98 
usemtl polymsh1
f 25/35/99 24/31/100 28/39/101 29/41/102 
usemtl polymsh1
f 23/30/103 26/36/104 30/42/105 27/38/106 
usemtl polymsh1
f 38/60/110 36/56/109 35/54/108 37/58/107 
usemtl polymsh1
f 24/33/111 23/29/112 31/44/113 32/46/114 
usemtl polymsh1
f 23/29/115 27/37/116 33/49/117 31/44/118 
usemtl polymsh1
f 28/40/119 24/33/120 32/46/121 34/50/122 
usemtl polymsh1
f 27/37/123 28/40/124 34/50/125 33/49/126 
usemtl polymsh1
f 32/47/127 31/43/128 35/52/129 36/55/130 
usemtl polymsh1
f 31/45/131 33/48/132 37/57/133 35/53/134 
usemtl polymsh1
f 34/51/135 32/47/136 36/55/137 38/59/138 
usemtl polymsh1
f 33/48/139 34/51/140 38/59/141 37/57/142 
usemtl polymsh1
f 67/89/143 76/98/144 74/96/145 65/87/146 
usemtl polymsh1
f 71/93/150 58/80/149 73/95/148 66/88/147 
usemtl polymsh1
f 39/61/151 55/77/152 61/83/153 59/81/154 
usemtl polymsh1
f 40/62/155 60/82/156 62/84/157 44/66/158 
usemtl polymsh1
f 77/99/159 79/101/160 80/102/161 78/100/162 
usemtl polymsh1
f 43/65/163 56/78/164 63/85/165 64/86/166 
usemtl polymsh1
f 84/106/167 82/104/168 49/71/169 88/110/170 
usemtl polymsh1
f 82/104/171 83/105/172 50/72/173 49/71/174 
usemtl polymsh1
f 83/105/175 81/103/176 85/107/177 50/72/178 
usemtl polymsh1
f 57/79/179 72/94/180 68/90/181 75/97/182 
usemtl polymsh1
f 51/73/183 86/108/184 53/75/185 41/63/186 
usemtl polymsh1
f 86/108/187 87/109/188 54/76/189 53/75/190 
usemtl polymsh1
f 87/109/191 48/70/192 52/74/193 54/76/194 
usemtl polymsh1
f 72/94/195 71/93/196 66/88/197 68/90/198 
usemtl polymsh1
f 55/77/199 44/66/200 56/78/201 43/65/202 
usemtl polymsh1
f 44/66/203 62/84/204 63/85/205 56/78/206 
usemtl polymsh1
f 46/68/207 45/67/208 69/91/209 70/92/210 
usemtl polymsh1
f 45/67/211 61/83/212 64/86/213 69/91/214 
usemtl polymsh1
f 58/80/215 57/79/216 75/97/217 73/95/218 
usemtl polymsh1
f 45/67/219 47/69/220 59/81/221 61/83/222 
usemtl polymsh1
f 42/64/223 46/68/224 62/84/225 60/82/226 
usemtl polymsh1
f 55/77/227 43/65/228 64/86/229 61/83/230 
usemtl polymsh1
f 46/68/231 70/92/232 63/85/233 62/84/234 
usemtl polymsh1
f 97/126/235 100/129/236 93/119/237 99/128/238 
usemtl polymsh1
f 100/129/239 91/115/240 95/121/241 93/119/242 
usemtl polymsh1
f 94/120/243 98/127/244 96/123/245 92/117/246 
usemtl polymsh1
f 90/113/247 96/123/248 98/127/249 89/111/250 
usemtl polymsh1
f 91/114/251 90/113/252 89/111/253 95/122/254 
usemtl polymsh1
f 97/126/255 99/128/256 94/120/257 92/117/258 
usemtl polymsh1
f 100/130/259 97/125/260 96/124/261 90/112/262 
usemtl polymsh1
f 100/130/263 90/112/264 91/116/265 
usemtl polymsh1
f 96/124/266 97/125/267 92/118/268 
usemtl polymsh1
f 99/128/269 93/119/270 101/131/271 102/132/272 
usemtl polymsh1
f 94/120/273 99/128/274 102/132/275 103/133/276 
usemtl polymsh1
f 93/119/277 95/121/278 104/134/279 101/131/280 
usemtl polymsh1
f 98/127/281 94/120/282 103/133/283 105/136/284 
usemtl polymsh1
f 95/122/285 89/111/286 106/137/287 104/135/288 
usemtl polymsh1
f 89/111/289 98/127/290 105/136/291 106/137/292 
usemtl polymsh1
f 102/132/293 101/131/294 107/139/295 108/140/296 
usemtl polymsh1
f 103/133/297 102/132/298 108/140/299 109/142/300 
usemtl polymsh1
f 101/131/301 104/134/302 110/144/303 107/139/304 
usemtl polymsh1
f 105/136/305 103/133/306 109/142/307 111/148/308 
usemtl polymsh1
f 104/135/309 106/137/310 112/149/311 110/145/312 
usemtl polymsh1
f 106/137/313 105/136/314 111/148/315 112/149/316 
usemtl polymsh1
f 108/141/317 107/138/318 112/150/319 111/147/320 
usemtl polymsh1
f 108/141/321 111/147/322 109/143/323 
usemtl polymsh1
f 112/150/324 107/138/325 110/146/326 
usemtl polymsh1
f 115/153/327 114/152/328 113/151/329 116/154/330 
#end 86 faces
